<svg version="1" xmlns="http://www.w3.org/2000/svg" width="682.667" height="682.667" viewBox="0 0 512.000000 512.000000"><path d="M238.1 34.1c-37.2 2.8-74.7 15.9-105.6 36.7-45.4 30.6-77.6 75.4-91.5 127.5-4.2 15.7-5.8 25.5-7 42.9-2.8 39.6 5.3 79.8 23.2 115 5.7 11.3 15.5 27.4 16.2 26.7.2-.2 2-7.4 4-15.9 11.8-50.5 12.3-52.5 15.2-55.9 1.1-1.4 2.3-3.1 2.5-3.8.6-1.6 11.1-9.3 12.7-9.3.7 0 5-1.5 9.5-3.4 14.8-6.2 26.2-10.6 27-10.6.5 0 4.5-1.5 9-3.4 4.5-1.8 12.7-5 18.2-7.1 5.5-2 11.4-4.3 13.1-5l3-1.3 1.2 4.3c2.9 10.7 7.1 17.6 16.6 27 7.3 7.3 10.9 10 17.6 13.3 4.6 2.3 8.9 4.2 9.6 4.2 1.6 0 5.1-4.9 11.7-16.6 3.2-5.6 7.2-11.9 9.1-14l3.3-3.8 3.5 5.5c2 3 5.7 9.2 8.4 13.9 5.8 10.3 9.2 15 10.9 15 .7 0 3.3-1.1 5.6-2.5 2.4-1.4 5.1-2.5 5.9-2.5 2.1-.1 8-5 17.2-14.2 7.9-7.9 12.3-15.4 15-25.4l1.2-4.2 3 1.3c1.7.7 7.6 3 13.1 5 5.5 2.1 13.7 5.3 18.2 7.1 4.5 1.9 8.5 3.4 9 3.4.8 0 12.2 4.4 27 10.6 4.5 1.9 8.8 3.4 9.5 3.4 2.2 0 12 7.9 13.5 10.8.8 1.5 2 3.4 2.7 4.2 1.7 1.9 2.7 5.2 6.9 23 7.8 32.6 11.2 46 11.8 46 1.3 0 8.6-12 15.4-25.5 11.4-22.4 18.9-46.3 22.1-70.5 2.2-16.4 2.2-43.6 0-60-5.4-40.3-23.1-80.8-49.2-112-6.8-8.2-23.9-25.2-31.9-31.6-23.5-19.1-55.1-34.8-85.1-42.3-15.7-3.9-22.2-4.9-38.9-6.1-15.4-1.1-18.2-1.1-33.4.1zm38.8 14c10.5 2.9 26.7 11.9 33.5 18.6 4.3 4.2 6.8 8.2 11.5 17.8 8.4 17.4 10.3 25.8 10.5 46 .1 13.5.4 16.5 1.9 18.8.9 1.4 1.7 3.1 1.7 3.7 0 1.7 6.8 12.1 10.3 15.7l3.1 3.3H324v4.9c0 14.1-5.8 36.8-13.6 53.1-2.5 5.2-5.3 11-6.2 12.8-2.5 5.2-12.5 15.5-19.4 20-18.9 12.2-39.7 11.9-58.8-.9-8.4-5.6-19.9-18.8-20.6-23.5-.1-.7-2-4.9-4.3-9.5-7.2-14.9-13.1-38.2-13.1-52V172h-20.4l4.1-4.3c5.3-5.4 9.9-13 11.3-18.7.7-2.5 1.6-12.4 2-22 .7-14.9 1.2-18.8 3.5-26 2.7-8.5 6.6-17.2 9-20 .7-.8 1.5-2.7 1.9-4.1.7-3.4 13.4-16.1 18.2-18.4 1.9-.9 5.2-2.8 7.2-4.1 3.4-2.4 19.4-7.8 25.7-8.8 5.7-.8 18.7.4 26.4 2.5z"/><path d="M250 74c-6.7 2.3-14.9 10.5-16.8 16.7-1.5 4.9-1.5 11.6-.2 16.3 1.3 4.7 8.1 12.4 13.8 15.8 6.6 3.8 16.4 3.8 23.8 0 9-4.7 14.3-13.2 14.4-22.9 0-12.1-6.4-21.7-17.4-25.8-6.9-2.6-10.5-2.6-17.6-.1zM140 442.2c0 .3-.2 1.3-.5 2-.4.9.4 1.9 1.7 2.6 1.3.6 4.2 2.3 6.6 3.7l4.3 2.7-.3-5.4-.3-5.3-5.7-.5c-3.2-.3-5.8-.2-5.8.2zM360.4 443.4c-.3.7-.4 3.2-.2 5.4l.3 4.1 5.8-3.5c7.9-4.9 7.5-7.4-1.4-7.4-2.5 0-4.2.5-4.5 1.4zM255.4 461.5c0 9.9.2 13.8.3 8.7.2-5.1.2-13.2 0-18-.1-4.8-.3-.6-.3 9.3zM237.8 477.7c.7.3 1.6.2 1.9-.1.4-.3-.2-.6-1.3-.5-1.1 0-1.4.3-.6.6z"/></svg>